<svg xmlns="http://www.w3.org/2000/svg" viewBox="0 0 900 300" width="900" height="300">
  <defs>
    <linearGradient id="mark-light" x1="0%" y1="0%" x2="100%" y2="100%">
      <stop offset="0%" style="stop-color:#3b82f6"/>
      <stop offset="100%" style="stop-color:#2563eb"/>
    </linearGradient>
    <linearGradient id="mark-dark" x1="100%" y1="0%" x2="0%" y2="100%">
      <stop offset="0%" style="stop-color:#1d4ed8"/>
      <stop offset="100%" style="stop-color:#0047AB"/>
    </linearGradient>
    <linearGradient id="mark-mid" x1="50%" y1="0%" x2="50%" y2="100%">
      <stop offset="0%" style="stop-color:#2563eb"/>
      <stop offset="100%" style="stop-color:#1e40af"/>
    </linearGradient>
  </defs>

  <!-- Geometric mark: Angular 'C' crystal inside hexagon -->
  <g transform="translate(130, 150)">
    <!-- Outer hexagon - the container -->
    <polygon points="0,-75 65,-37.5 65,37.5 0,75 -65,37.5 -65,-37.5" fill="none" stroke="#2563eb" stroke-width="2.5" opacity="0.25"/>

    <!-- The bold C-shape built from three angular facets -->
    <!-- Top facet (lighter) - angles down-right -->
    <polygon points="-42,-52 30,-52 18,-30 -42,-30" fill="url(#mark-light)"/>

    <!-- Left facet (medium) - vertical bar of the C -->
    <polygon points="-42,-52 -42,52 -18,40 -18,-40" fill="url(#mark-mid)"/>

    <!-- Bottom facet (darker) - angles up-right -->
    <polygon points="-42,52 30,52 18,30 -42,30" fill="url(#mark-dark)"/>

    <!-- Depth facet: darker shade inside the C for 3D feel -->
    <polygon points="-18,-40 -4,-28 -4,28 -18,40" fill="#1e3a5f" opacity="0.5"/>
  </g>

  <!-- Text group -->
  <g transform="translate(240, 0)">
    <!-- "Project Cobalt" main title -->
    <text x="0" y="160" fill="#f0f6fc" font-family="'Segoe UI', 'Helvetica Neue', Arial, sans-serif" font-size="56" font-weight="700" letter-spacing="1">Project Cobalt</text>
  </g>
</svg>
