<svg xmlns="http://www.w3.org/2000/svg" viewBox="0 0 900 300" width="900" height="300">
  <defs>
    <linearGradient id="bg" x1="0%" y1="0%" x2="100%" y2="100%">
      <stop offset="0%" style="stop-color:#0d1117"/>
      <stop offset="100%" style="stop-color:#161b28"/>
    </linearGradient>
    <linearGradient id="mark-light" x1="0%" y1="0%" x2="100%" y2="100%">
      <stop offset="0%" style="stop-color:#3b82f6"/>
      <stop offset="100%" style="stop-color:#2563eb"/>
    </linearGradient>
    <linearGradient id="mark-dark" x1="100%" y1="0%" x2="0%" y2="100%">
      <stop offset="0%" style="stop-color:#1d4ed8"/>
      <stop offset="100%" style="stop-color:#0047AB"/>
    </linearGradient>
    <linearGradient id="mark-mid" x1="50%" y1="0%" x2="50%" y2="100%">
      <stop offset="0%" style="stop-color:#2563eb"/>
      <stop offset="100%" style="stop-color:#1e40af"/>
    </linearGradient>
  </defs>

  <!-- Background -->
  <rect width="900" height="300" rx="12" fill="url(#bg)"/>

  <!-- Geometric mark: Angular 'C' crystal inside hexagon -->
  <g transform="translate(130, 150)">
    <!-- Outer hexagon - the container -->
    <polygon points="0,-75 65,-37.5 65,37.5 0,75 -65,37.5 -65,-37.5" fill="none" stroke="#2563eb" stroke-width="2.5" opacity="0.25"/>

    <!-- The bold C-shape built from three angular facets -->
    <!-- Top facet (lighter) - angles down-right -->
    <polygon points="-42,-52 30,-52 18,-30 -42,-30" fill="url(#mark-light)"/>

    <!-- Left facet (medium) - vertical bar of the C -->
    <polygon points="-42,-52 -42,52 -18,40 -18,-40" fill="url(#mark-mid)"/>

    <!-- Bottom facet (darker) - angles up-right -->
    <polygon points="-42,52 30,52 18,30 -42,30" fill="url(#mark-dark)"/>

    <!-- Inner negative-space cut: creates the C opening and adds depth -->
    <!-- This triangle cuts into the right side, creating the C gap -->
    <polygon points="18,-30 42,-8 42,8 18,30 6,18 6,-18" fill="#0d1117"/>

    <!-- Depth facet: small parallelogram inside the C creating 3D feel -->
    <polygon points="-18,-40 -4,-28 -4,28 -18,40" fill="#1a2332" opacity="0.7"/>
  </g>

  <!-- Text group -->
  <g transform="translate(240, 0)">
    <!-- "Beyond Identity" label -->
    <text x="0" y="118" fill="#8b949e" font-family="'Segoe UI', 'Helvetica Neue', Arial, sans-serif" font-size="14" font-weight="600" letter-spacing="4">BEYOND IDENTITY</text>

    <!-- "Project Cobalt" main title -->
    <text x="0" y="178" fill="#f0f6fc" font-family="'Segoe UI', 'Helvetica Neue', Arial, sans-serif" font-size="56" font-weight="700" letter-spacing="1">Project Cobalt</text>

    <!-- Tagline -->
    <text x="0" y="212" fill="#4a6a8a" font-family="'Segoe UI', 'Helvetica Neue', Arial, sans-serif" font-size="16" font-weight="400">Hardware-enforced Zero Trust for AI infrastructure</text>
  </g>

  <!-- Accent line -->
  <rect x="240" y="224" width="60" height="2.5" rx="1.25" fill="#2563eb" opacity="0.5"/>
</svg>
